<svg version="1.1" xmlns="http://www.w3.org/2000/svg" xmlns:xlink="http://www.w3.org/1999/xlink" style="enable-background:new 0 0 512 512;" xml:space="preserve" width="440.0434780120851" height="439.9565191268921"><rect id="backgroundrect" width="100%" height="100%" x="0" y="0" fill="none" stroke="none" style="" class=""/>




















<g class="currentLayer" style=""><title>Layer 1</title><path style="fill:#FFD15C;" d="M281.6235122680664,392.33657574653625 c6.400000095367432,-21.33300018310547 19.200000762939453,-40.53300094604492 36.266998291015625,-55.46699905395508 c32,-26.66699981689453 52.266998291015625,-67.19999694824219 52.266998291015625,-112 c0,-83.19999694824219 -69.33300018310547,-151.4669952392578 -154.66700744628906,-147.1999969482422 C139.75652313232422,80.86956524848938 77.88951873779297,144.86956524848938 75.75652313232422,220.60256695747375 C74.68952178955078,267.5365574359894 94.9565200805664,309.136563539505 128.02352142333984,336.8695652484894 C146.1565170288086,351.802579164505 158.9565200805664,371.00256085395813 165.35651397705078,392.33657574653625 L281.6235122680664,392.33657574653625 L281.6235122680664,392.33657574653625 z" id="svg_1" class="" transform="translate(0, -77.3913)"/><path style="fill:#FFFFFF;" d="M820.394287109375,395.3391304016113 h9.600000381469727 l-42.66699981689453,-158.93299865722656 c1.0670000314712524,0 2.132999897003174,0 3.200000047683716,0 c5.333000183105469,0 10.666999816894531,-2.132999897003174 14.932999610900879,-6.400000095367432 c2.132999897003174,-2.132999897003174 4.267000198364258,-3.200000047683716 7.4670000076293945,-3.200000047683716 c3.200000047683716,0 5.333000183105469,1.0670000314712524 7.4670000076293945,3.200000047683716 c7.4670000076293945,8.532999992370605 20.267000198364258,8.532999992370605 27.732999801635742,0 c2.132999897003174,-2.132999897003174 4.267000198364258,-3.200000047683716 7.4670000076293945,-3.200000047683716 c2.132999897003174,0 5.333000183105469,1.0670000314712524 7.4670000076293945,3.200000047683716 c4.267000198364258,4.267000198364258 8.532999992370605,6.400000095367432 14.932999610900879,6.400000095367432 c1.0670000314712524,0 2.132999897003174,0 3.200000047683716,0 l-41.599998474121094,158.93299865722656 h9.600000381469727 l43.733001708984375,-166.39999389648438 c0,-2.132999897003174 0,-4.267000198364258 -2.132999897003174,-5.333000183105469 c-2.132999897003174,-1.0670000314712524 -4.267000198364258,0 -5.333000183105469,1.0670000314712524 c-2.132999897003174,2.132999897003174 -4.267000198364258,3.200000047683716 -6.400000095367432,3.200000047683716 c-3.200000047683716,0 -5.333000183105469,-1.0670000314712524 -8.532999992370605,-3.200000047683716 c-4.267000198364258,-4.267000198364258 -8.532999992370605,-6.400000095367432 -13.866999626159668,-6.400000095367432 s-9.600000381469727,2.132999897003174 -13.866999626159668,6.400000095367432 s-10.666999816894531,4.267000198364258 -14.932999610900879,0 c-3.200000047683716,-4.267000198364258 -8.532999992370605,-6.400000095367432 -13.866999626159668,-6.400000095367432 l0,0 c-5.333000183105469,0 -10.666999816894531,2.132999897003174 -13.866999626159668,6.400000095367432 c-2.132999897003174,2.132999897003174 -5.333000183105469,3.200000047683716 -8.532999992370605,3.200000047683716 c-2.132999897003174,0 -5.333000183105469,-1.0670000314712524 -6.400000095367432,-3.200000047683716 c-1.0670000314712524,-1.0670000314712524 -3.200000047683716,-2.132999897003174 -5.333000183105469,-1.0670000314712524 c-2.132999897003174,1.0670000314712524 -3.200000047683716,3.200000047683716 -2.132999897003174,5.333000183105469 L820.394287109375,395.3391304016113 z" id="svg_2" class=""/><g id="svg_3" class="" transform="translate(0.869565, -75.6522)">
	<path style="fill:#344A5E;" d="M189.88951873779297,490.469571352005 C195.22351837158203,503.26955914497375 208.02352142333984,512.8695652484894 222.9565200805664,512.8695652484894 c14.932999610900879,0 27.732999801635742,-9.600000381469727 33.06700134277344,-22.399999618530273 H189.88951873779297 z" id="svg_4"/>
	<path style="fill:#344A5E;" d="M262.4235305786133,491.5365574359894 H184.55652618408203 c-10.666999816894531,0 -19.200000762939453,-8.532999992370605 -19.200000762939453,-19.200000762939453 V391.26955914497375 h116.26699829101562 v81.06700134277344 C281.6235122680664,483.00256085395813 273.08951568603516,491.5365574359894 262.4235305786133,491.5365574359894 z" id="svg_5"/>
</g><g id="svg_6" class="" transform="translate(355.652, -329.565)">
	<path style="fill:#415A6B;" d="M791.8608703613281,420.498233795166 H676.6608581542969 c-6.400000095367432,0 -11.732999801635742,-5.333000183105469 -11.732999801635742,-11.732999801635742 l0,0 c0,-6.400000095367432 5.333000183105469,-11.732999801635742 11.732999801635742,-11.732999801635742 h115.19999694824219 c6.400000095367432,0 11.732999801635742,5.333000183105469 11.732999801635742,11.732999801635742 l0,0 C803.5939025878906,415.165225982666 798.2608947753906,420.498233795166 791.8608703613281,420.498233795166 z" id="svg_7"/>
	<path style="fill:#415A6B;" d="M791.8608703613281,457.832218170166 H676.6608581542969 c-6.400000095367432,0 -11.732999801635742,-5.333000183105469 -11.732999801635742,-11.732999801635742 l0,0 c0,-6.400000095367432 5.333000183105469,-11.732999801635742 11.732999801635742,-11.732999801635742 h115.19999694824219 c6.400000095367432,0 11.732999801635742,5.333000183105469 11.732999801635742,11.732999801635742 l0,0 C803.5939025878906,452.498233795166 798.2608947753906,457.832218170166 791.8608703613281,457.832218170166 z" id="svg_8"/>
</g><g id="svg_9" class="" opacity="1">
	<path style="fill:#FFD15C;" d="M-414.4348449707031,-66.95652770996094 c-5.333000183105469,0 -10.666999816894531,4.267000198364258 -10.666999816894531,10.666999816894531 v36.266998291015625 c0,5.333000183105469 4.267000198364258,10.666999816894531 10.666999816894531,10.666999816894531 c6.400000095367432,0 10.666999816894531,-4.267000198364258 10.666999816894531,-10.666999816894531 V-56.289527893066406 C-403.7678527832031,-62.68952941894531 -409.1018371582031,-66.95652770996094 -414.4348449707031,-66.95652770996094 z" id="svg_10" opacity="1"/>
	<path style="fill:#FFD15C;" d="M-557.3678436279297,-1.8895263671875 c-4.267000198364258,-4.267000198364258 -10.666999816894531,-4.267000198364258 -14.932999610900879,0 s-4.267000198364258,10.666999816894531 0,14.932999610900879 l25.600000381469727,25.600000381469727 c4.267000198364258,4.267000198364258 10.666999816894531,4.267000198364258 14.932999610900879,0 s4.267000198364258,-10.666999816894531 0,-14.932999610900879 L-557.3678436279297,-1.8895263671875 z" id="svg_11" opacity="1"/>
	<path style="fill:#FFD15C;" d="M-590.4348449707031,145.3104705810547 H-626.7018432617188 c-5.333000183105469,0 -10.666999816894531,4.267000198364258 -10.666999816894531,10.666999816894531 l0,0 c0,5.333000183105469 4.267000198364258,10.666999816894531 10.666999816894531,10.666999816894531 H-590.4348449707031 c5.333000183105469,0 10.666999816894531,-4.267000198364258 10.666999816894531,-10.666999816894531 l0,0 C-579.7678527832031,150.6434783935547 -585.1018371582031,145.3104705810547 -590.4348449707031,145.3104705810547 z" id="svg_12" opacity="1"/>
	<path style="fill:#FFD15C;" d="M-546.7018432617188,273.3104705810547 l-25.600000381469727,25.600000381469727 c-4.267000198364258,4.267000198364258 -4.267000198364258,10.666999816894531 0,14.932999610900879 s10.666999816894531,4.267000198364258 14.932999610900879,0 l25.600000381469727,-25.600000381469727 c4.267000198364258,-4.267000198364258 4.267000198364258,-10.666999816894531 0,-14.932999610900879 S-542.4348449707031,269.04347229003906 -546.7018432617188,273.3104705810547 z" id="svg_13" opacity="1"/>
	<path style="fill:#FFD15C;" d="M-282.1678466796875,273.3104705810547 C-286.434814453125,269.04347229003906 -292.8348388671875,269.04347229003906 -297.1018371582031,273.3104705810547 c-4.267000198364258,4.267000198364258 -4.267000198364258,10.666999816894531 0,14.932999610900879 l25.600000381469727,25.600000381469727 c4.267000198364258,4.267000198364258 10.666999816894531,4.267000198364258 14.932999610900879,0 s4.267000198364258,-10.666999816894531 0,-14.932999610900879 L-282.1678466796875,273.3104705810547 z" id="svg_14" opacity="1"/>
	<path style="fill:#FFD15C;" d="M-202.1678466796875,145.3104705810547 H-238.434814453125 c-5.333000183105469,0 -10.666999816894531,4.267000198364258 -10.666999816894531,10.666999816894531 l0,0 c0,5.333000183105469 4.267000198364258,10.666999816894531 10.666999816894531,10.666999816894531 h36.266998291015625 c5.333000183105469,0 10.666999816894531,-4.267000198364258 10.666999816894531,-10.666999816894531 l0,0 C-191.5018310546875,150.6434783935547 -195.767822265625,145.3104705810547 -202.1678466796875,145.3104705810547 z" id="svg_15" opacity="1"/>
	<path style="fill:#FFD15C;" d="M-271.5018310546875,-1.8895263671875 l-25.600000381469727,25.600000381469727 c-4.267000198364258,4.267000198364258 -4.267000198364258,10.666999816894531 0,14.932999610900879 c4.267000198364258,4.267000198364258 10.666999816894531,4.267000198364258 14.932999610900879,0 l25.600000381469727,-25.600000381469727 c4.267000198364258,-4.267000198364258 4.267000198364258,-10.666999816894531 0,-14.932999610900879 S-267.23486328125,-6.156524658203125 -271.5018310546875,-1.8895263671875 z" id="svg_16" opacity="1"/>
</g><g id="svg_17" class="">
</g><g id="svg_18" class="">
</g><g id="svg_19" class="">
</g><g id="svg_20" class="">
</g><g id="svg_21" class="">
</g><g id="svg_22" class="">
</g><g id="svg_23" class="">
</g><g id="svg_24" class="">
</g><g id="svg_25" class="">
</g><g id="svg_26" class="">
</g><g id="svg_27" class="">
</g><g id="svg_28" class="">
</g><g id="svg_29" class="">
</g><g id="svg_30" class="">
</g><g id="svg_31" class="">
</g></g></svg>