<svg height="448" width="448" xmlns="http://www.w3.org/2000/svg"><rect id="backgroundrect" width="100%" height="100%" x="0" y="0" fill="none" stroke="none"/><g class="currentLayer" style=""><title>Layer 1</title><path d="m191.83526229858398,444.51458740234375 h-64 l-15.5,-232.5399932861328 a0.09000000357627869,0.09000000357627869 0 0 0 -0.009999999776482582,-0.05000000074505806 l-0.49000000953674316,-7.409999847412109 h72 z" fill="#4fb37b" id="svg_1" class="" stroke="none" fill-opacity="1"/><path d="m335.8352470397949,204.5146026611328 l-0.3499999940395355,5.289999961853027 c0,0.019999999552965164 -0.009999999776482582,0.03999999910593033 -0.009999999776482582,0.05999999865889549 l-15.640000343322754,234.64999389648438 h-64 l8,-240 z" fill="#4fb37b" class="" id="svg_17" opacity="1" fill-opacity="1" stroke="none"/><path d="m263.8352470397949,204.5146026611328 l-8,240 h-64 l-8,-240 z" fill="#4fb37b" class="" id="svg_18" fill-opacity="1" stroke-width="1" stroke="#4fb37b" opacity="1" stroke-opacity="1"/><path d="m150.63717651367188,62.61986541748047 a7.97599983215332,7.97599983215332 0 0 1 -5.6570000648498535,-2.3429999351501465 l-22.62700080871582,-22.62700080871582 a8,8 0 1 1 11.312999725341797,-11.314000129699707 l22.628000259399414,22.62700080871582 a8,8 0 0 1 -5.6570000648498535,13.656999588012695 z" fill="#d89b31" class="" id="svg_20" fill-opacity="1"/><path d="m344.0091552734375,102.61986541748047 a8,8 0 0 1 -5.6570000648498535,-13.656999588012695 l22.62700080871582,-22.62700080871582 a8,8 0 1 1 11.314000129699707,11.314000129699707 l-22.628000259399414,22.62700080871582 a7.974999904632568,7.974999904632568 0 0 1 -5.656000137329102,2.3429999351501465 z" fill="#d89b31" class="" id="svg_21" fill-opacity="1"/><path d="m56.00917053222656,215.99285888671875 h-32 a8,8 0 1 1 0,-16 h32 a8,8 0 0 1 0,16 z" fill="#d89b31" class="" id="svg_22" fill-opacity="1"/><g fill="#ffb83b" class="" id="svg_23" fill-opacity="1"><path d="m296.0091552734375,15.992866516113281 a15.972999572753906,15.972999572753906 0 0 0 -8.149999618530273,2.2200000286102295 a16.229999542236328,16.229999542236328 0 0 0 0.15000000596046448,-2.2200000286102295 a16,16 0 1 0 -28.559999465942383,9.920000076293945 a20,20 0 1 0 28.479999542236328,19.889999389648438 a16,16 0 1 0 8.079999923706055,-29.809999465942383 z" id="svg_24" fill="#ffb83b"/><path d="m64.00917053222656,383.99285888671875 a15.972999572753906,15.972999572753906 0 0 0 -8.149999618530273,2.2200000286102295 a16.229999542236328,16.229999542236328 0 0 0 0.15000000596046448,-2.2200000286102295 a16,16 0 1 0 -28.559999465942383,9.920000076293945 a20,20 0 1 0 28.479999542236328,19.889999389648438 a16,16 0 1 0 8.079999923706055,-29.809999465942383 z" id="svg_25" fill="#ffb83b"/><path d="m52.56916809082031,89.9128646850586 a16,16 0 1 0 -28.559999465942383,-9.920000076293945 a16.229999542236328,16.229999542236328 0 0 0 0.15000000596046448,2.2200000286102295 a16.006000518798828,16.006000518798828 0 1 0 -0.07000000029802322,27.59000015258789 a20,20 0 1 0 28.479999542236328,-19.889999389648438 z" id="svg_26" fill="#ffb83b"/><path d="m436.56915283203125,169.91287231445312 a16,16 0 1 0 -28.559999465942383,-9.920000076293945 a16.229999542236328,16.229999542236328 0 0 0 0.15000000596046448,2.2200000286102295 a16.006000518798828,16.006000518798828 0 1 0 -0.07000000029802322,27.59000015258789 a20,20 0 1 0 28.479999542236328,-19.889999389648438 z" id="svg_27" fill="#ffb83b"/></g><path d="m314.15021538734436,163.74042224884033 a58.18222427368164,58.18214416503906 0 0 0 -103.87159729003906,-45.87422561645508 a33.249507904052734,33.24946212768555 0 0 0 -61.238433837890625,17.94039535522461 a32.86722183227539,32.8671760559082 0 0 0 1.6205589771270752,10.263526916503906 a58.20404052734375,58.20396041870117 0 0 0 -43.17335510253906,56.220855712890625 v8.310547828674316 h232.69566345214844 v-8.310547828674316 a41.55902862548828,41.5589714050293 0 0 0 -26.032825469970703,-38.55055618286133 z" fill="#ffb83b" class="" id="svg_9" fill-opacity="1"/></g></svg>